PathFileType	3	(X/Y/Z)	E:\ViconData\BIOM9541 2025\Week 7\Wed1100\Hanif high squat 7-5 Squat 01.trc
DataRate	CameraRate	NumFrames	NumMarkers	Units	OrigDataRate	OrigDataStartFrame	OrigNumFrames
200.0	200.0	11	19	mm	200.0	879	1756	
Frame#	Time	C7			CLAV			RBAK			LASI			RASI			LPSI			RPSI			LTHI			LKNE			LTIB			LANK			LHEE			LTOE			RTHI			RKNE			RTIB			RANK			RHEE			RTOE			
		X1	Y1	Z1	X2	Y2	Z2	X3	Y3	Z3	X4	Y4	Z4	X5	Y5	Z5	X6	Y6	Z6	X7	Y7	Z7	X8	Y8	Z8	X9	Y9	Z9	X10	Y10	Z10	X11	Y11	Z11	X12	Y12	Z12	X13	Y13	Z13	X14	Y14	Z14	X15	Y15	Z15	X16	Y16	Z16	X17	Y17	Z17	X18	Y18	Z18	X19	Y19	Z19	
879	4.39	316.58807	1058.0654	-1218.1481	173.8759	977.67804	-1211.3605	337.45053	976.5177	-1369.3965	243.30197	620.38214	-1092.054	243.8305	636.977	-1352.9756	414.3993	678.2097	-1173.397	416.156	675.3984	-1247.3206	149.92863	453.73196	-924.78076	75.923004	344.14594	-885.39819	202.09236	181.66554	-919.40894	298.91351	66.788834	-979.83966	320.4227	55.641571	-1038.5978	159.7235	38.763184	-948.43976	271.39981	555.25085	-1439.7242	91.670929	335.34985	-1540.7927	133.0051	261.62589	-1533.7285	289.48309	70.67984	-1434.6801	315.74918	54.449173	-1364.6019	162.13496	40.648537	-1464.6216	
880	4.395	316.40143	1057.0851	-1218.4182	172.94482	976.40887	-1212.5522	337.30975	975.60754	-1369.6079	243.23872	619.52325	-1092.2366	243.8142	635.9511	-1353.1113	414.3432	677.2407	-1173.7783	416.0731	674.5832	-1247.4355	149.72125	453.39856	-924.85345	75.605865	343.95398	-885.32135	201.93195	181.59578	-919.3714	298.89838	66.79306	-979.90735	320.44156	55.626869	-1038.6498	159.71021	38.708511	-948.49005	271.54083	554.18091	-1439.3889	91.360229	334.98795	-1541.0764	132.68889	261.23965	-1533.9387	289.43799	70.62854	-1434.6685	315.21347	54.370636	-1364.0012	162.11414	40.561401	-1464.58	
881	4.4	316.19852	1056.1965	-1218.579	173.21484	975.39349	-1213.3629	337.10324	974.68146	-1369.8706	243.18004	618.67853	-1092.3157	243.7371	635.0696	-1353.3296	414.305	676.435	-1174.0239	416.0247	673.627	-1247.6495	149.52257	453.02692	-924.91333	75.330452	343.76273	-885.26221	201.7663	181.48689	-919.39355	299.28757	67.156219	-979.99927	320.42657	55.630775	-1038.6863	159.6701	38.69305	-948.54205	271.49899	553.45227	-1439.4829	90.988281	334.64929	-1541.3466	132.4061	260.96368	-1534.136	289.38599	70.602875	-1434.6476	315.14743	54.418743	-1363.924	162.08977	40.530811	-1464.5585	
882	4.405	316.0127	1055.2886	-1218.8191	172.61012	974.44745	-1213.0593	337.00174	973.90009	-1370.1312	243.12297	617.85767	-1092.5747	243.6661	634.2008	-1353.5034	414.2121	675.5626	-1173.9365	415.9473	672.6724	-1247.8026	149.3423	452.65329	-924.98297	75.071045	343.52658	-885.17889	201.64903	181.37283	-919.42346	299.1723	66.98774	-979.99512	320.36639	55.721138	-1038.7094	159.66206	38.699833	-948.50793	271.46127	552.81122	-1439.6383	90.646675	334.37207	-1541.5686	132.11876	260.74698	-1534.2969	289.32108	70.650673	-1434.6089	315.09256	54.510494	-1363.8746	162.05173	40.540478	-1464.5078	
883	4.41	315.81354	1054.4658	-1218.9482	173.28084	973.87988	-1212.1621	336.82709	973.0592	-1370.266	243.12764	617.02789	-1092.767	243.6556	633.3979	-1353.6904	414.1468	674.7747	-1174.0244	415.8432	671.8508	-1247.9268	149.1555	452.32721	-925.02197	74.819733	343.31735	-885.15277	201.53387	181.26877	-919.45325	298.74744	66.834724	-979.87305	320.3291	55.725819	-1038.7094	159.6357	38.703102	-948.4364	271.39862	552.1922	-1439.7949	90.318108	334.05368	-1541.7435	131.87204	260.54688	-1534.4645	289.26163	70.723061	-1434.5819	315.59955	54.801052	-1364.3995	162.02084	40.558167	-1464.4705	
884	4.415	315.68918	1053.7002	-1219.2261	172.52742	973.31482	-1211.6382	336.72916	972.27325	-1370.4996	243.01413	616.36713	-1092.9088	243.5705	632.5864	-1353.9258	414.14	673.947	-1174.3124	415.8822	670.9882	-1248.2152	149.01408	452.05478	-925.11035	74.556435	343.17783	-885.13245	201.39191	181.19926	-919.42786	299.14572	67.179436	-980.01202	320.31726	55.694386	-1038.7555	159.65565	38.692524	-948.46576	271.35501	551.6059	-1439.9548	90.028938	333.72891	-1541.9946	131.64227	260.27756	-1534.6665	289.24747	70.735451	-1434.5729	315.54761	54.853951	-1364.3824	162.01431	40.53717	-1464.4316	
885	4.42	315.53177	1052.8945	-1219.4753	172.18872	972.48633	-1212.5695	337.11029	971.63306	-1370.9917	242.97748	615.62219	-1093.1676	243.5704	631.769	-1354.0612	414.1533	673.1834	-1174.7781	415.8529	670.2526	-1248.4301	148.84229	451.80643	-925.16565	74.326035	343.00308	-885.11371	201.24895	181.1532	-919.41571	299.2027	67.199303	-980.10651	320.40561	55.677296	-1038.8065	159.66621	38.681393	-948.55286	271.37268	550.91901	-1440.0586	89.813385	333.42514	-1542.2587	131.47577	259.9469	-1534.8253	289.23856	70.675941	-1434.5753	315.0477	54.634167	-1363.8828	162.03142	40.508156	-1464.4514	
886	4.425	315.4025	1052.1337	-1219.7794	172.90123	971.46741	-1212.8966	336.68652	970.76593	-1371.0992	242.89748	615.00256	-1093.2158	243.5078	630.9098	-1354.2587	414.1432	672.3808	-1175.1938	415.8693	669.597	-1248.6571	148.70459	451.51498	-925.25275	74.11216	342.81552	-885.07562	201.15233	181.11852	-919.41504	298.76825	66.885155	-980.07617	320.35391	55.665127	-1038.8444	159.65997	38.66507	-948.58966	271.3194	550.27289	-1440.1786	89.570999	333.11014	-1542.5378	131.25984	259.67783	-1534.9946	289.23193	70.619621	-1434.5635	315.56003	54.835011	-1364.5101	161.99738	40.492546	-1464.4788	
887	4.43	315.29828	1051.4058	-1220.071	172.73766	970.6394	-1213.2485	336.51053	969.94348	-1371.2894	242.89072	614.34216	-1093.521	243.4876	630.2281	-1354.4808	414.0856	671.6982	-1175.3024	415.812	668.7918	-1248.8524	148.57425	451.18219	-925.33075	73.933006	342.60074	-885.03015	201.04402	181.01485	-919.40619	299.15759	67.278435	-980.16302	320.23303	55.707615	-1038.8696	159.65842	38.634094	-948.57617	271.28326	549.73303	-1440.3535	89.30072	332.80783	-1542.7651	131.01906	259.46902	-1535.174	289.18524	70.648453	-1434.5543	315.45129	54.854717	-1364.3744	162.00018	40.509953	-1464.5002	
888	4.435	315.06567	1050.6453	-1220.2679	172.50937	969.91846	-1213.2798	336.38263	969.27173	-1371.4785	242.88802	613.55737	-1093.7352	243.4548	629.5295	-1354.728	413.9938	671.0521	-1175.2971	415.694	668.1154	-1248.9423	148.44395	450.8652	-925.36005	73.746368	342.37787	-884.95343	200.95889	180.88382	-919.39697	298.73038	67.030457	-980.06885	320.27106	55.816219	-1038.866	159.63907	38.67828	-948.52399	271.30997	549.18231	-1440.4628	89.031151	332.67456	-1543.0358	130.80368	259.33521	-1535.3242	289.12878	70.747444	-1434.5389	315.34161	54.953201	-1364.1875	161.96542	40.562817	-1464.4839	
889	4.44	314.90802	1049.9595	-1220.5283	172.47696	969.30591	-1213.8573	336.28763	968.58984	-1371.7854	242.85562	612.97461	-1093.8181	243.4566	628.7985	-1354.8479	413.8806	670.4136	-1175.0471	415.5883	667.0922	-1249.1057	148.35406	450.55569	-925.44623	73.531326	342.18753	-884.87061	200.8428	180.7886	-919.32025	298.64389	67.004044	-979.99554	320.20132	55.905819	-1038.844	159.61412	38.746727	-948.48529	271.2926	548.66913	-1440.6027	88.804642	332.44769	-1543.2269	130.56342	259.16409	-1535.4814	289.09161	70.864098	-1434.5265	315.35562	55.022663	-1364.1747	161.94266	40.642654	-1464.4938	
